<?xml version="1.0" encoding="utf-8"?>
<!-- Generator: Adobe Illustrator 25.0.1, SVG Export Plug-In . SVG Version: 6.00 Build 0)  -->
<svg version="1.1" id="Capa_1" xmlns="http://www.w3.org/2000/svg" xmlns:xlink="http://www.w3.org/1999/xlink" x="0px" y="0px"
	 viewBox="0 0 1080 1080" style="enable-background:new 0 0 1080 1080;" xml:space="preserve">
<style type="text/css">
	.st0{font-family:'Roboto-Light';}
	.st1{font-size:58.4774px;}
	.st2{letter-spacing:1;}
</style>
<g>
	<g>
		<text transform="matrix(1 0 0 1 67.0845 943.0713)" class="st0 st1 st2">ASESORiA FINANCIERA CONTABLE</text>
	</g>
	<g>
		<path d="M305.5,220.14c32.72-33.8,70.46-60.27,114.31-77.32c84.69-32.93,168.88-26.75,251.32,7.08
			c112.8,46.28,176.05,133.8,201.66,250.63c3.48,15.86,8.99,29.87,18.15,43.22c10.94,15.95,8.36,33.6-4.79,45.88
			c-13.23,12.34-32.42,13.41-47.39,2.64c-12.22-8.79-16.89-23.56-11.95-40.78c4.19-14.63,8.85-29.02,5.89-44.58
			c-15.8-83.05-56.21-151.14-124.48-201.5c-117.9-86.97-272.97-84.79-389.37,4.71C314.44,213.51,309.95,216.8,305.5,220.14z
			 M879.55,461.8c-0.11-10.69-7.97-18.27-18.76-18.07c-10.66,0.19-18.33,8.2-18.08,18.87c0.25,10.47,8.47,18.44,18.85,18.26
			C871.96,480.69,879.66,472.53,879.55,461.8z"/>
		<path d="M777.22,726.76c-16.19,13.76-31.53,28.71-48.72,41.07c-52.31,37.62-111.42,57.66-175.56,59.45
			c-138.07,3.86-243.83-53.94-314.22-172.77c-15.56-26.27-23.24-57.18-34.72-85.9c-5.6-14.01-10.93-28.18-17.51-41.73
			c-12.74-26.23,4.33-55,32.73-54.25c27.03,0.71,44.34,30.62,29.81,53.35c-8.59,13.43-8.13,26.08-4.38,40.41
			c34.99,133.86,148.29,231.45,289.09,241.47c87.98,6.26,165.3-21.38,232.81-77.53c2.67-2.22,5.3-4.51,7.95-6.76
			C775.39,724.62,776.31,725.69,777.22,726.76z M219.3,529.54c10.69,0.07,18.46-7.53,18.52-18.12c0.06-10.65-7.6-18.62-18.03-18.78
			c-11.09-0.17-19.16,7.78-19.03,18.75C200.9,521.94,208.59,529.47,219.3,529.54z"/>
		<path d="M488.81,507.36c-21.23,0-40.4,0-60.66,0c0,18.98,0,37.68,0,56.58c-14.7,0-28.28,0-42.72,0c0-51.08,0-101.02,0-152.07
			c11.61,0,22.98,0,34.34,0c23.26,0,46.77,2.09,69.73-0.58c23.75-2.75,45.83,25.16,36.05,50.71c-3.36,8.78-10.84,15.99-16.97,24.68
			c18.34,8.51,20.15,26.48,19.18,45.87c-0.49,9.72-0.09,19.49-0.09,30.1c-12.98,0-25.23,0-38.85,0
			C488.81,544.68,488.81,526.39,488.81,507.36z M423.58,473.32c17.92,0,34.69,0.12,51.44-0.06c7-0.08,11.64-3.57,11.66-11.04
			c0.03-8.02-1.17-17.25-10.63-17.96c-17.24-1.29-34.65-0.37-52.48-0.37C423.58,454.01,423.58,462.92,423.58,473.32z"/>
		<path d="M623.93,447.8c0,39.22,0,76.59,0,114.84c-13.17,0-25.76,0-39.59,0c0-37.03,0-74.26,0-112.86c-16.12,0-31.06,0-46.49,0
			c0-12.67,0-23.94,0-35.87c45.25,0,89.94,0,135.49,0c0,10.99,0,21.87,0,33.9C657.18,447.8,641.21,447.8,623.93,447.8z"/>
		<path d="M697.44,399.71c-13.79,0.06-24.34-10.26-24.43-23.91c-0.1-13.43,10.68-24.31,24.2-24.44
			c13.59-0.13,24.17,10.46,24.17,24.2C721.38,389.67,711.49,399.64,697.44,399.71z"/>
		<path d="M727.39,482.54c-0.15,12.32-10.64,22.47-22.87,22.12c-11.92-0.35-21.51-10.26-21.59-22.32
			c-0.09-12.69,9.7-22.51,22.31-22.39C717.87,460.07,727.53,469.93,727.39,482.54z"/>
		<path d="M743.65,431.86c0.04,10.5-7.13,18.04-17.33,18.24c-10.42,0.2-18.6-8-18.42-18.44c0.17-10.03,8.07-17.76,18.12-17.73
			C736.24,413.94,743.62,421.45,743.65,431.86z"/>
		<path d="M722,326.55c0.01,10.14-7.64,17.99-17.73,18.21c-10.12,0.22-18.8-8.47-18.58-18.61c0.21-9.87,8.37-17.6,18.49-17.52
			C714.41,308.7,721.99,316.32,722,326.55z"/>
		<path d="M781.51,473.76c-0.31,9.88-8.53,17.65-18.53,17.52c-10.35-0.14-18.33-8.75-17.75-19.15c0.53-9.53,8.46-17.13,17.82-17.1
			C773.32,455.07,781.83,463.71,781.51,473.76z"/>
		<path d="M645.21,359.44c10.05-0.13,17.92,7.52,18.15,17.65c0.24,10.47-7.87,18.69-18.31,18.55c-9.88-0.14-17.67-8.09-17.8-18.17
			C627.13,367.75,635.28,359.57,645.21,359.44z"/>
		<path d="M744.8,358.02c9.73,0.01,17.71,8.26,17.71,18.31c0,10.17-7.57,17.81-17.83,17.99c-9.71,0.17-18.29-7.93-18.58-17.55
			C725.81,367.09,734.87,358.01,744.8,358.02z"/>
		<path d="M652.05,465.93c9.38,0.12,16.54,7.43,16.49,16.82c-0.05,9.39-7.27,16.65-16.65,16.75c-9.56,0.1-17.6-8.01-17.22-17.37
			C635.04,473.04,642.8,465.81,652.05,465.93z"/>
		<path d="M658.76,353.05c-7.63-0.24-14.08-7.02-13.67-14.36c0.42-7.71,7.13-14,14.54-13.65c7.7,0.37,13.82,6.92,13.56,14.53
			C672.91,347.4,666.6,353.3,658.76,353.05z"/>
		<path d="M785.49,424.07c-0.35,7.59-7.11,13.78-14.7,13.44c-7.73-0.34-13.21-6.61-12.95-14.81c0.26-8.13,6.23-13.65,14.31-13.26
			C780,409.83,785.85,416.24,785.49,424.07z"/>
		<path d="M496.27,411.32c0,0-48.52-7.31-110.85-2.36v7.92l29,13.27l74.69-3.96"/>
	</g>
</g>
</svg>
